# xmcd
#
# Track frame offsets:
#	150
#	16885
#	34137
#	53198
#	70019
#	89531
#	104229
#	122276
#	140018
#	157382
#	177976
#
# Disc length: 2617 seconds
#
# Revision: 1
# Processed by: cddbd v1.5.2PL0 Copyright (c) Steve Scherf et al.
# Submitted via: audiograbber 1.83.01
#
DISCID=9c0a370b
DTITLE=Diandra Flores - Outta My Head
DYEAR=2012
DGENRE=Pop
TTITLE0=Like A Tattoo
TTITLE1=Outta My Head
TTITLE2=Only Girl In The World
TTITLE3=Prinsessalle
TTITLE4=Maailma On Sun
TTITLE5=A Reason Why
TTITLE6=Listen
TTITLE7=Why Can't My Heart Break
TTITLE8=Born This Way
TTITLE9=I Have Nothing
TTITLE10=Onko Marsissa Lunta¿
EXTD=
EXTT0=
EXTT1=
EXTT2=
EXTT3=
EXTT4=
EXTT5=
EXTT6=
EXTT7=
EXTT8=
EXTT9=
EXTT10=
PLAYORDER=
